<svg width="800" height="150" viewBox="0 0 800 150" fill="none" xmlns="http://www.w3.org/2000/svg">
<g clip-path="url(#clip0_1_2306)">
<path d="M161.926 145.858L188.654 8.10026H221.055L194.327 145.858H161.926ZM225.329 100.871H213.298L218.364 75.1451H227.968C234.037 75.1451 239.102 74.0106 243.166 71.6886C247.229 69.3931 250.29 66.3324 252.374 62.4802C254.459 58.628 255.514 54.2744 255.514 49.4195C255.514 44.5646 253.957 40.7388 250.844 37.9683C247.73 35.1979 243.087 33.8259 236.86 33.8259H207.493L212.348 8.10026H241.715C256.306 8.10026 267.889 11.5567 276.464 18.4433C285.039 25.3298 289.34 35.1187 289.34 47.81C289.34 57.5462 286.807 66.3852 281.741 74.3536C276.675 82.3219 269.34 88.7335 259.762 93.5884C250.184 98.4433 238.707 100.871 225.329 100.871Z" fill="#F6F8FA"/>
<path d="M379.26 145.857L375.197 77.7836L375.804 60.7651H377.229L370.949 77.7836L340.368 145.857H300.659L293.983 36.8865H326.991L327.387 108.997L327.176 127.229H325.566L333.06 108.997L366.068 36.8865H397.466L402.321 108.997L402.532 127.229H400.711L407.387 108.997L436.147 36.8865H467.941L418.706 145.857H379.207H379.26Z" fill="#F6F8FA"/>
<path d="M451.766 145.857L472.822 36.8865H503.824L482.769 145.857H451.766ZM494.721 83.2453H484.378C487.334 71.8997 491.239 62.5593 496.014 55.1978C500.816 47.8364 506.41 42.3746 512.822 38.7862C519.233 35.1978 526.225 33.43 533.798 33.43C540.157 33.43 545.671 34.6438 550.421 37.0712C555.144 39.4986 558.838 43.087 561.45 47.81C564.088 52.5329 565.407 58.4168 565.407 65.4353C565.407 67.335 565.302 69.3139 565.091 71.3984C564.88 73.4828 564.59 75.62 564.167 77.7836L550.79 145.857H519.787L532.743 79.4195C533.006 78.0738 533.217 76.8337 533.349 75.6728C533.481 74.5382 533.561 73.4037 533.561 72.3219C533.561 67.7308 532.452 64.3007 530.21 61.9788C527.993 59.6833 524.51 58.5224 519.787 58.5224C516.806 58.5224 513.956 59.1292 511.186 60.343C508.415 61.5567 505.909 63.2717 503.692 65.5145C501.476 67.7308 499.603 70.3694 498.125 73.4037C496.648 76.438 495.487 79.7097 494.669 83.219L494.721 83.2453Z" fill="#F6F8FA"/>
<path d="M661.821 79.8153L641.979 91.161C642.375 88.7335 642.718 86.4644 642.982 84.38C643.246 82.2955 643.377 80.2903 643.377 78.3905C643.377 71.7678 641.926 66.7546 639.024 63.2982C636.122 59.8417 631.9 58.1267 626.359 58.1267C621.9 58.1267 617.863 59.3668 614.195 61.8734C610.554 64.38 607.414 67.7837 604.776 72.1108C602.137 76.438 600.158 81.2665 598.786 86.5963C597.441 91.9261 596.755 97.3615 596.755 102.902C596.755 110.053 598.232 115.435 601.214 118.997C604.195 122.586 608.628 124.354 614.591 124.354C619.71 124.354 624.327 123.245 628.364 121.003C632.428 118.786 635.594 115.092 637.889 109.974H670.29C666.913 118.628 662.217 125.831 656.201 131.636C650.185 137.441 643.404 141.794 635.831 144.697C628.259 147.599 620.37 149.05 612.137 149.05C597.546 149.05 586.042 145.092 577.599 137.203C569.156 129.314 564.934 118.206 564.934 103.879C564.934 94.5647 566.465 85.6729 569.499 77.2296C572.533 68.7863 576.913 61.2665 582.665 54.6438C588.391 48.0211 595.224 42.8232 603.114 39.0502C611.003 35.2771 619.684 33.3773 629.156 33.3773C643.457 33.3773 654.538 37.3879 662.375 45.4354C670.211 53.4829 674.116 64.248 674.116 77.7573C674.116 79.9209 674.011 82.2164 673.8 84.6438C673.589 87.0713 673.298 89.4987 672.876 91.9261L671.874 97.599H577.889L581.135 79.7626H661.768L661.821 79.8153Z" fill="#F6F8FA"/>
<path d="M712.48 149.077C705.039 149.077 698.601 147.309 693.139 143.799C687.677 140.29 683.482 135.303 680.58 128.813C677.677 122.322 676.226 114.776 676.226 106.121C676.226 96.5435 677.651 87.3879 680.474 78.6807C683.324 69.9736 687.334 62.2164 692.532 55.3826C697.73 48.5752 703.904 43.1926 711.055 39.2876C718.205 35.3826 726.121 33.4037 734.749 33.4037C745.013 33.4037 752.849 36.9393 758.258 44.0369C763.667 51.1346 766.358 61.0818 766.358 73.905C766.358 84.3008 764.907 94.0633 762.005 103.166C759.102 112.269 755.092 120.29 749.947 127.177C744.801 134.063 739.049 139.42 732.638 143.272C726.226 147.124 719.498 149.05 712.48 149.05V149.077ZM723.825 123.958C728.284 123.958 732.295 122.507 735.883 119.604C739.472 116.702 742.506 112.955 744.986 108.364C747.493 103.773 749.34 98.8127 750.553 93.4828C751.767 88.153 752.374 83.0607 752.374 78.1794C752.374 71.8206 751.055 66.9657 748.416 63.5884C745.778 60.2111 741.899 58.5224 736.78 58.5224C732.717 58.5224 728.97 59.8417 725.54 62.4802C722.11 65.1187 719.102 68.6016 716.516 72.9024C713.957 77.2295 711.952 82.1108 710.553 87.5989C709.129 93.0607 708.416 98.628 708.416 104.301C708.416 110.66 709.709 115.515 712.268 118.892C714.828 122.269 718.68 123.958 723.825 123.958ZM740.659 145.857L768.997 0H799.999L771.635 145.857H740.633H740.659Z" fill="#F6F8FA"/>
<path d="M160.421 100.871L165.408 75.145H132.98L127.993 100.871H160.421Z" fill="#F6F8FA"/>
<path d="M117.756 100.871L122.743 75.145H90.3156L85.3288 100.871H117.756Z" fill="#F6F8FA"/>
<path d="M66.3591 145.857L73.0874 111.134H40.6599L33.9317 145.857H66.3591Z" fill="#F6F8FA"/>
<path d="M32.4268 100.871L45.4347 33.8259H13.0073L-0.000640869 100.871H32.4268Z" fill="#F6F8FA"/>
<path d="M75.0915 100.871L81.8197 66.1478H49.3923L42.6641 100.871H75.0915Z" fill="#F6F8FA"/>
</g>
<defs>
<clipPath id="clip0_1_2306">
<rect width="800" height="149.077" fill="white"/>
</clipPath>
</defs>
</svg>
