<svg width="907" height="174" viewBox="0 0 907 174" fill="none" xmlns="http://www.w3.org/2000/svg">
<g clip-path="url(#clip0_317_39302)">
<path fill-rule="evenodd" clip-rule="evenodd" d="M173.879 86.7961C173.879 38.8605 134.996 0 87.032 0C39.0683 0 0.185059 38.8605 0.185059 86.7961C0.185059 134.734 39.0683 173.592 87.032 173.592C134.996 173.592 173.879 134.734 173.879 86.7961ZM71.2248 38.576C70.542 39.9152 70.542 41.6684 70.542 45.1747V65.0472C70.542 65.9231 70.542 66.361 70.6526 66.7659C70.7506 67.1246 70.9118 67.463 71.1286 67.7652C71.3733 68.1063 71.7134 68.3824 72.3936 68.9347L77.4234 73.0182C78.2432 73.6838 78.6532 74.0166 78.802 74.4173C78.9325 74.7687 78.9325 75.1553 78.802 75.5067C78.6532 75.9073 78.2432 76.2401 77.4234 76.9057L72.3937 80.9893C71.7134 81.5415 71.3733 81.8176 71.1286 82.1587C70.9118 82.4609 70.7506 82.7993 70.6526 83.1581C70.542 83.563 70.542 84.0009 70.542 84.8768V128.417C70.542 131.923 70.542 133.676 71.2248 135.015C71.8254 136.194 72.7837 137.151 73.9624 137.751C75.3024 138.434 77.0566 138.434 80.565 138.434H93.4988C97.0072 138.434 98.7614 138.434 100.101 137.751C101.28 137.151 102.238 136.194 102.839 135.015C103.522 133.676 103.522 131.923 103.522 128.417V108.544C103.522 107.668 103.522 107.23 103.411 106.826C103.313 106.467 103.152 106.128 102.935 105.826C102.691 105.485 102.35 105.209 101.67 104.657L96.6404 100.573C95.8207 99.9077 95.4107 99.5748 95.2619 99.1741C95.1313 98.8227 95.1313 98.4362 95.2619 98.0848C95.4107 97.6841 95.8206 97.3513 96.6404 96.6857L101.67 92.6022C102.35 92.05 102.691 91.7738 102.935 91.4327C103.152 91.1305 103.313 90.7921 103.411 90.4334C103.522 90.0285 103.522 89.5906 103.522 88.7147V45.1747C103.522 41.6684 103.522 39.9152 102.839 38.576C102.238 37.398 101.28 36.4402 100.101 35.84C98.7614 35.1576 97.0072 35.1576 93.4988 35.1576H80.565C77.0566 35.1576 75.3024 35.1576 73.9624 35.84C72.7837 36.4402 71.8254 37.398 71.2248 38.576Z" fill="#FFFEFB"/>
<path d="M243.598 138.719C244.458 138.719 245.155 138.022 245.155 137.162V35.2064C245.155 34.3465 244.458 33.6494 243.598 33.6494H228.563C228.006 33.6494 227.496 33.9507 227.19 34.4159C223.743 39.6544 217.334 42.2929 208.549 42.5676C207.689 42.5944 206.99 43.2886 206.99 44.1486V59.3978C206.99 60.2577 207.687 60.9548 208.548 60.9548H220.698C221.559 60.9548 222.256 61.6519 222.256 62.5119V137.162C222.256 138.022 222.954 138.719 223.814 138.719H243.598Z" fill="#FFFEFB"/>
<path d="M303.618 54.7273C311.728 54.7273 318.248 59.0387 318.248 69.8969C318.248 80.4359 311.728 85.0666 303.618 85.0666H285.966V54.7273H303.618ZM303.618 104.707C327.471 104.707 341.306 90.1764 341.306 69.2582C341.306 49.4578 327.471 34.9269 303.618 34.9269H264.784C263.923 34.9269 263.226 35.624 263.226 36.4839V137.162C263.226 138.022 263.923 138.719 264.784 138.719H284.408C285.269 138.719 285.966 138.022 285.966 137.162V106.264C285.966 105.404 286.664 104.707 287.524 104.707H303.618Z" fill="#FFFEFB"/>
<path d="M376.577 124.029C369.898 124.029 365.764 120.995 365.764 115.566C365.764 110.775 368.626 107.582 375.464 107.582H394.07V109.178C394.07 118.44 386.119 124.029 376.577 124.029ZM395.819 137.162C395.819 138.022 396.517 138.719 397.377 138.719H414.457C415.318 138.719 416.015 138.022 416.015 137.162V92.0926C416.015 70.376 403.77 57.7612 381.666 57.7612C365.254 57.7612 352.689 66.5256 347.537 80.6157C347.228 81.4619 347.742 82.3744 348.617 82.589L365.826 86.8068C366.603 86.9974 367.394 86.566 367.696 85.8254C370.31 79.4333 374.661 75.6455 381.666 75.6455C388.981 75.6455 394.07 80.4359 394.07 89.0586V90.1764C394.07 92.5716 393.275 93.5297 390.413 93.5297H370.535C353.996 93.5297 343.978 102.312 343.978 116.204C343.978 131.055 355.427 140.636 371.33 140.636C379.331 140.636 387.019 138.006 392.437 132.15C393.502 130.999 395.819 131.701 395.819 133.269V137.162Z" fill="#FFFEFB"/>
<path d="M458.326 124.667C450.598 124.667 444.953 121.46 442.171 115.566C441.833 114.851 441.049 114.435 440.281 114.629L424.197 118.701C423.37 118.91 422.86 119.748 423.106 120.565C427.179 134.089 440.799 140.636 457.53 140.636C478.999 140.636 491.244 129.618 491.244 114.608C491.244 85.5457 445.286 95.4459 445.286 81.0746C445.286 76.2842 449.261 73.2502 456.417 73.2502C463.539 73.2502 468.308 77.1426 470.594 83.1114C470.877 83.8518 471.637 84.3163 472.416 84.1688L488.833 81.0611C489.711 80.8949 490.272 80.0241 490.019 79.1679C486.253 66.4534 475.67 57.7612 456.576 57.7612C435.585 57.7612 424.454 68.9389 424.454 82.9908C424.454 113.011 470.57 104.069 470.57 116.524C470.57 121.474 466.436 124.667 458.326 124.667Z" fill="#FFFEFB"/>
<path d="M529.768 124.667C522.041 124.667 516.396 121.46 513.613 115.566C513.275 114.851 512.491 114.435 511.724 114.629L495.639 118.701C494.812 118.91 494.303 119.748 494.549 120.565C498.621 134.089 512.241 140.636 528.973 140.636C550.441 140.636 562.686 129.618 562.686 114.608C562.686 85.5457 516.728 95.4459 516.728 81.0746C516.728 76.2842 520.704 73.2502 527.86 73.2502C534.982 73.2502 539.751 77.1426 542.036 83.1114C542.32 83.8518 543.079 84.3163 543.859 84.1688L560.276 81.0611C561.153 80.8949 561.715 80.0241 561.461 79.1679C557.696 66.4534 547.112 57.7612 528.019 57.7612C507.028 57.7612 495.896 68.9389 495.896 82.9908C495.896 113.011 542.013 104.069 542.013 116.524C542.013 121.474 537.878 124.667 529.768 124.667Z" fill="#FFFEFB"/>
<path d="M582.789 137.53C582.959 138.228 583.584 138.719 584.303 138.719H609.037C609.76 138.719 610.389 138.222 610.554 137.519L623.153 83.9488L635.751 137.519C635.917 138.222 636.545 138.719 637.268 138.719H662.8C663.517 138.719 664.142 138.23 664.313 137.533L682.949 61.6054C683.19 60.6243 682.447 59.6774 681.436 59.6774H663.859C663.12 59.6774 662.483 60.196 662.333 60.9191L649.869 121.154L634.425 60.8484C634.249 60.1593 633.627 59.6774 632.916 59.6774H613.252C612.53 59.6774 611.903 60.1726 611.736 60.8741L597.391 121.154L585.082 60.9229C584.934 60.198 584.296 59.6774 583.556 59.6774H565.819C564.81 59.6774 564.067 60.6222 564.305 61.6025L582.789 137.53Z" fill="#FFFEFB"/>
<path d="M724.964 140.636C748.817 140.636 765.197 122.113 765.197 99.2782C765.197 76.2842 748.817 57.7612 724.964 57.7612C701.269 57.7612 684.731 76.2842 684.731 99.2782C684.731 122.113 701.269 140.636 724.964 140.636ZM724.964 121.634C715.104 121.634 707.471 113.33 707.471 99.2782C707.471 85.2263 715.104 76.7632 724.964 76.7632C734.823 76.7632 742.615 85.2263 742.615 99.2782C742.615 113.33 734.823 121.634 724.964 121.634Z" fill="#FFFEFB"/>
<path d="M796.563 96.883C796.563 83.3101 803.401 80.1165 813.897 80.1165C815.909 80.1165 818.119 80.3162 820.214 80.7156C821.102 80.8848 821.982 80.3181 822.139 79.4285L825.469 60.6239C825.585 59.9634 825.269 59.2937 824.652 59.0308C822.739 58.2164 820.373 57.7612 817.554 57.7612C806.9 57.7612 798.63 63.9888 794.655 76.6035V61.2344C794.655 60.3745 793.957 59.6774 793.097 59.6774H775.858C774.997 59.6774 774.3 60.3745 774.3 61.2344V137.162C774.3 138.022 774.997 138.719 775.858 138.719H795.005C795.865 138.719 796.563 138.022 796.563 137.162V96.883Z" fill="#FFFEFB"/>
<path d="M866.614 122.113C855.165 122.113 849.122 112.691 849.122 99.2782C849.122 85.865 855.165 76.2842 866.614 76.2842C878.064 76.2842 884.107 85.865 884.107 99.2782C884.107 112.691 878.064 122.113 866.614 122.113ZM885.379 137.162C885.379 138.022 886.077 138.719 886.937 138.719H904.812C905.673 138.719 906.37 138.022 906.37 137.162V36.7161C906.37 35.8562 905.673 35.1591 904.812 35.1591H886.301C885.44 35.1591 884.743 35.8562 884.743 36.7161V70.6953C879.813 61.4339 871.544 57.7612 861.048 57.7612C840.534 57.7612 826.54 75.6455 826.54 99.2782C826.54 122.911 840.534 140.636 861.048 140.636C872.18 140.636 880.767 136.164 885.379 124.667V137.162Z" fill="#FFFEFB"/>
</g>
<defs>
<clipPath id="clip0_317_39302">
<rect width="907" height="174" fill="white"/>
</clipPath>
</defs>
</svg>
